# xmcd CD database file
#
# Track frame offsets:
#	150
#	13154
#	22106
#	38170
#	52686
#	68360
#	80019
#	93209
#	105733
#	116990
#	129333
#	142557
#	154285
#	166248
#	179113
#	193479
#
# Disc length: 2782 seconds
#
# Revision: 0
# Processed by: cddbd v1.5PL3 Copyright (c) Steve Scherf et al.
# Submitted via: CDex 1.51
#
DISCID=d40adc10
DTITLE=Clube da Viola - Raizes 
DYEAR=1996
DGENRE=Country
TTITLE0=Leo Canhoto e Robertinho - Vou toma um pingao
TTITLE1=Tonico e Tinoco - Canta Mocada
TTITLE2=Zilo e Zalo - Boiadeiro Errante
TTITLE3=Ze do rancho e ze do pinho - Meu sitio , Meu paraiso
TTITLE4=Torrinha e Canhotinho - Divino Espirito Santo
TTITLE5=Liu e Leu - Mulher e viola
TTITLE6=Sulino e Marrueiro - Laco Justiceiro
TTITLE7=Palmeira e Luizinho - Chao de Minas
TTITLE8=Abel e Caim - Selo de Sangue
TTITLE9=Silveira e Barrinha - Mineiro de Uberaba
TTITLE10=Ze Carreiro e Carreirinho - Mulato Gordo
TTITLE11=Flor da Serra e Santiago - Parana do Norte
TTITLE12=Brazao e Brazaozinho - Baldrana Macia
TTITLE13=Nho Belarmino e Nha Gabriela - Mocinhas da Cidade
TTITLE14=Palmeira e Bia - Disco Voador
TTITLE15=Raul Torres e Florencio - Pingo d'Agua
EXTD=YEAR: 1996
EXTT0=
EXTT1=
EXTT2=
EXTT3=
EXTT4=
EXTT5=
EXTT6=
EXTT7=
EXTT8=
EXTT9=
EXTT10=
EXTT11=
EXTT12=
EXTT13=
EXTT14=
EXTT15=
PLAYORDER=
